G04 #@! TF.GenerationSoftware,KiCad,Pcbnew,5.0.2-bee76a0~70~ubuntu18.04.1*
G04 #@! TF.CreationDate,2019-11-04T11:53:34-05:00*
G04 #@! TF.ProjectId,socket,736f636b-6574-42e6-9b69-6361645f7063,rev?*
G04 #@! TF.SameCoordinates,Original*
G04 #@! TF.FileFunction,Copper,L2,Bot*
G04 #@! TF.FilePolarity,Positive*
%FSLAX46Y46*%
G04 Gerber Fmt 4.6, Leading zero omitted, Abs format (unit mm)*
G04 Created by KiCad (PCBNEW 5.0.2-bee76a0~70~ubuntu18.04.1) date Mon 04 Nov 2019 11:53:34 AM EST*
%MOMM*%
%LPD*%
G01*
G04 APERTURE LIST*
G04 #@! TA.AperFunction,ComponentPad*
%ADD10C,2.794000*%
G04 #@! TD*
G04 #@! TA.AperFunction,ComponentPad*
%ADD11O,1.600000X1.600000*%
G04 #@! TD*
G04 #@! TA.AperFunction,ComponentPad*
%ADD12C,1.600000*%
G04 #@! TD*
G04 #@! TA.AperFunction,ComponentPad*
%ADD13C,2.000000*%
G04 #@! TD*
G04 #@! TA.AperFunction,ComponentPad*
%ADD14O,1.727200X1.727200*%
G04 #@! TD*
G04 #@! TA.AperFunction,ComponentPad*
%ADD15R,1.727200X1.727200*%
G04 #@! TD*
G04 #@! TA.AperFunction,ComponentPad*
%ADD16C,5.000000*%
G04 #@! TD*
G04 #@! TA.AperFunction,ViaPad*
%ADD17C,0.800000*%
G04 #@! TD*
G04 #@! TA.AperFunction,Conductor*
%ADD18C,0.250000*%
G04 #@! TD*
G04 APERTURE END LIST*
D10*
G04 #@! TO.P,J1,12*
G04 #@! TO.N,Net-(J1-Pad12)*
X36830000Y-99314000D03*
G04 #@! TO.P,J1,11*
G04 #@! TO.N,Net-(J1-Pad11)*
X40614600Y-100177600D03*
G04 #@! TO.P,J1,10*
G04 #@! TO.N,Net-(J1-Pad10)*
X42418000Y-103632000D03*
G04 #@! TO.P,J1,9*
G04 #@! TO.N,Net-(J1-Pad9)*
X42418000Y-107950000D03*
G04 #@! TO.P,J1,8*
G04 #@! TO.N,Net-(J1-Pad8)*
X42418000Y-112268000D03*
G04 #@! TO.P,J1,7*
G04 #@! TO.N,Net-(J1-Pad7)*
X40614600Y-115722400D03*
G04 #@! TO.P,J1,6*
G04 #@! TO.N,Net-(J1-Pad6)*
X36830000Y-116586000D03*
G04 #@! TO.P,J1,5*
G04 #@! TO.N,Net-(J1-Pad5)*
X33045400Y-115722400D03*
G04 #@! TO.P,J1,4*
G04 #@! TO.N,Net-(J1-Pad4)*
X31242000Y-112268000D03*
G04 #@! TO.P,J1,3*
G04 #@! TO.N,Net-(J1-Pad3)*
X31242000Y-107950000D03*
G04 #@! TO.P,J1,2*
G04 #@! TO.N,Net-(J1-Pad2)*
X31242000Y-103632000D03*
G04 #@! TO.P,J1,1*
G04 #@! TO.N,Net-(J1-Pad1)*
X33045400Y-100177600D03*
G04 #@! TD*
G04 #@! TO.P,J2,12*
G04 #@! TO.N,Net-(J2-Pad12)*
X55880000Y-99060000D03*
G04 #@! TO.P,J2,11*
G04 #@! TO.N,Net-(J2-Pad11)*
X59664600Y-99923600D03*
G04 #@! TO.P,J2,10*
G04 #@! TO.N,Net-(J2-Pad10)*
X61468000Y-103378000D03*
G04 #@! TO.P,J2,9*
G04 #@! TO.N,Net-(J2-Pad9)*
X61468000Y-107696000D03*
G04 #@! TO.P,J2,8*
G04 #@! TO.N,Net-(J2-Pad8)*
X61468000Y-112014000D03*
G04 #@! TO.P,J2,7*
G04 #@! TO.N,Net-(J2-Pad7)*
X59664600Y-115468400D03*
G04 #@! TO.P,J2,6*
G04 #@! TO.N,Net-(J2-Pad6)*
X55880000Y-116332000D03*
G04 #@! TO.P,J2,5*
G04 #@! TO.N,Net-(J2-Pad5)*
X52095400Y-115468400D03*
G04 #@! TO.P,J2,4*
G04 #@! TO.N,Net-(J2-Pad4)*
X50292000Y-112014000D03*
G04 #@! TO.P,J2,3*
G04 #@! TO.N,Net-(J2-Pad3)*
X50292000Y-107696000D03*
G04 #@! TO.P,J2,2*
G04 #@! TO.N,Net-(J2-Pad2)*
X50292000Y-103378000D03*
G04 #@! TO.P,J2,1*
G04 #@! TO.N,Net-(J2-Pad1)*
X52095400Y-99923600D03*
G04 #@! TD*
D11*
G04 #@! TO.P,R1,2*
G04 #@! TO.N,Net-(J1-Pad1)*
X35560000Y-95250000D03*
D12*
G04 #@! TO.P,R1,1*
G04 #@! TO.N,Net-(J3-Pad1)*
X43180000Y-95250000D03*
G04 #@! TD*
D11*
G04 #@! TO.P,R2,2*
G04 #@! TO.N,Net-(J2-Pad1)*
X55880000Y-95250000D03*
D12*
G04 #@! TO.P,R2,1*
G04 #@! TO.N,Net-(J3-Pad1)*
X48260000Y-95250000D03*
G04 #@! TD*
D13*
G04 #@! TO.P,J3,1*
G04 #@! TO.N,Net-(J3-Pad1)*
X45720000Y-93345000D03*
G04 #@! TD*
D14*
G04 #@! TO.P,J4,16*
G04 #@! TO.N,Net-(J2-Pad3)*
X54610000Y-121920000D03*
G04 #@! TO.P,J4,15*
G04 #@! TO.N,Net-(J2-Pad4)*
X54610000Y-124460000D03*
G04 #@! TO.P,J4,14*
G04 #@! TO.N,Net-(J2-Pad5)*
X52070000Y-121920000D03*
G04 #@! TO.P,J4,13*
G04 #@! TO.N,Net-(J2-Pad6)*
X52070000Y-124460000D03*
G04 #@! TO.P,J4,12*
G04 #@! TO.N,Net-(J2-Pad7)*
X49530000Y-121920000D03*
G04 #@! TO.P,J4,11*
G04 #@! TO.N,Net-(J2-Pad8)*
X49530000Y-124460000D03*
G04 #@! TO.P,J4,10*
G04 #@! TO.N,Net-(J2-Pad9)*
X46990000Y-121920000D03*
G04 #@! TO.P,J4,9*
G04 #@! TO.N,Net-(J2-Pad10)*
X46990000Y-124460000D03*
G04 #@! TO.P,J4,8*
G04 #@! TO.N,Net-(J2-Pad11)*
X44450000Y-121920000D03*
G04 #@! TO.P,J4,7*
G04 #@! TO.N,Net-(J2-Pad2)*
X44450000Y-124460000D03*
G04 #@! TO.P,J4,6*
G04 #@! TO.N,Net-(J1-Pad7)*
X41910000Y-121920000D03*
G04 #@! TO.P,J4,5*
G04 #@! TO.N,Net-(J1-Pad8)*
X41910000Y-124460000D03*
G04 #@! TO.P,J4,4*
G04 #@! TO.N,Net-(J1-Pad9)*
X39370000Y-121920000D03*
G04 #@! TO.P,J4,3*
G04 #@! TO.N,Net-(J1-Pad10)*
X39370000Y-124460000D03*
G04 #@! TO.P,J4,2*
G04 #@! TO.N,Net-(J1-Pad11)*
X36830000Y-121920000D03*
D15*
G04 #@! TO.P,J4,1*
G04 #@! TO.N,Net-(J1-Pad2)*
X36830000Y-124460000D03*
G04 #@! TD*
D16*
G04 #@! TO.P,x1,1*
G04 #@! TO.N,N/C*
X60325000Y-94615000D03*
G04 #@! TD*
G04 #@! TO.P,REF\002A\002A,1*
G04 #@! TO.N,N/C*
X31115000Y-94615000D03*
G04 #@! TD*
G04 #@! TO.P,REF\002A\002A,1*
G04 #@! TO.N,N/C*
X60325000Y-123825000D03*
G04 #@! TD*
G04 #@! TO.P,REF\002A\002A,1*
G04 #@! TO.N,N/C*
X31115000Y-123825000D03*
G04 #@! TD*
D17*
G04 #@! TO.N,Net-(J2-Pad6)*
X56896000Y-120650000D03*
G04 #@! TO.N,Net-(J2-Pad4)*
X50927000Y-120142000D03*
G04 #@! TD*
D18*
G04 #@! TO.N,Net-(J1-Pad9)*
X40259000Y-118491000D02*
X39370000Y-119380000D01*
X42799000Y-118491000D02*
X40259000Y-118491000D01*
X44577000Y-116713000D02*
X42799000Y-118491000D01*
X39370000Y-119380000D02*
X39370000Y-121920000D01*
X42418000Y-107950000D02*
X44577000Y-110109000D01*
X44577000Y-110109000D02*
X44577000Y-116713000D01*
G04 #@! TO.N,Net-(J1-Pad10)*
X40558601Y-123271399D02*
X40558601Y-120096399D01*
X45339000Y-117729000D02*
X45339000Y-106553000D01*
X39370000Y-124460000D02*
X40558601Y-123271399D01*
X40558601Y-120096399D02*
X41275000Y-119380000D01*
X45339000Y-106553000D02*
X42418000Y-103632000D01*
X41275000Y-119380000D02*
X43688000Y-119380000D01*
X43688000Y-119380000D02*
X45339000Y-117729000D01*
G04 #@! TO.N,Net-(J1-Pad11)*
X40614600Y-98201944D02*
X39694656Y-97282000D01*
X40614600Y-100177600D02*
X40614600Y-98201944D01*
X39694656Y-97282000D02*
X33401000Y-97282000D01*
X33401000Y-97282000D02*
X32639000Y-98044000D01*
X31623000Y-98044000D02*
X28702000Y-100965000D01*
X32639000Y-98044000D02*
X31623000Y-98044000D01*
X28702000Y-100965000D02*
X28702000Y-116205000D01*
X28702000Y-116205000D02*
X32004000Y-119507000D01*
X34417000Y-119507000D02*
X36830000Y-121920000D01*
X32004000Y-119507000D02*
X34417000Y-119507000D01*
G04 #@! TO.N,Net-(J2-Pad10)*
X59309000Y-105537000D02*
X61468000Y-103378000D01*
X46990000Y-124460000D02*
X45720000Y-123190000D01*
X46609000Y-118364000D02*
X46609000Y-106934000D01*
X45720000Y-119253000D02*
X46609000Y-118364000D01*
X45720000Y-123190000D02*
X45720000Y-119253000D01*
X46609000Y-106934000D02*
X48006000Y-105537000D01*
X48006000Y-105537000D02*
X59309000Y-105537000D01*
G04 #@! TO.N,Net-(J2-Pad9)*
X46990000Y-119888000D02*
X46990000Y-121920000D01*
X54737000Y-107696000D02*
X52578000Y-109855000D01*
X47625000Y-110490000D02*
X47625000Y-119253000D01*
X61468000Y-107696000D02*
X54737000Y-107696000D01*
X52578000Y-109855000D02*
X48260000Y-109855000D01*
X48260000Y-109855000D02*
X47625000Y-110490000D01*
X47625000Y-119253000D02*
X46990000Y-119888000D01*
G04 #@! TO.N,Net-(J2-Pad8)*
X62992000Y-119380000D02*
X62992000Y-113538000D01*
X61849000Y-120523000D02*
X62992000Y-119380000D01*
X58420000Y-120523000D02*
X61849000Y-120523000D01*
X49530000Y-125681314D02*
X50213686Y-126365000D01*
X49530000Y-124460000D02*
X49530000Y-125681314D01*
X50213686Y-126365000D02*
X56388000Y-126365000D01*
X56388000Y-126365000D02*
X56769000Y-125984000D01*
X62992000Y-113538000D02*
X61468000Y-112014000D01*
X56769000Y-125984000D02*
X56769000Y-122174000D01*
X56769000Y-122174000D02*
X58420000Y-120523000D01*
G04 #@! TO.N,Net-(J2-Pad7)*
X59664600Y-116484400D02*
X59664600Y-115468400D01*
X57277000Y-118872000D02*
X59664600Y-116484400D01*
X50292000Y-118872000D02*
X57277000Y-118872000D01*
X49530000Y-121920000D02*
X49530000Y-119634000D01*
X49530000Y-119634000D02*
X50292000Y-118872000D01*
G04 #@! TO.N,Net-(J2-Pad6)*
X52070000Y-124460000D02*
X52933599Y-125323599D01*
X52933599Y-125323599D02*
X53467000Y-125857000D01*
X53467000Y-125857000D02*
X55753000Y-125857000D01*
X56134000Y-125476000D02*
X56134000Y-121666000D01*
X55753000Y-125857000D02*
X56134000Y-125476000D01*
X56134000Y-121666000D02*
X56896000Y-120904000D01*
X56896000Y-120904000D02*
X56896000Y-120650000D01*
G04 #@! TO.N,Net-(J2-Pad4)*
X53421399Y-123271399D02*
X53421399Y-120858399D01*
X54610000Y-124460000D02*
X53421399Y-123271399D01*
X53421399Y-120858399D02*
X52578000Y-120015000D01*
X51926072Y-120142000D02*
X50927000Y-120142000D01*
X52578000Y-120015000D02*
X52053072Y-120015000D01*
X52053072Y-120015000D02*
X51926072Y-120142000D01*
G04 #@! TO.N,Net-(J2-Pad1)*
X52095400Y-99923600D02*
X52095400Y-97383600D01*
X52095400Y-97383600D02*
X52070000Y-97358200D01*
X52070000Y-97358200D02*
X52070000Y-97028000D01*
X53848000Y-95250000D02*
X55880000Y-95250000D01*
X52070000Y-97028000D02*
X53848000Y-95250000D01*
G04 #@! TD*
M02*
