G04 #@! TF.GenerationSoftware,KiCad,Pcbnew,5.0.2-bee76a0~70~ubuntu18.04.1*
G04 #@! TF.CreationDate,2019-11-04T11:53:34-05:00*
G04 #@! TF.ProjectId,socket,736f636b-6574-42e6-9b69-6361645f7063,rev?*
G04 #@! TF.SameCoordinates,Original*
G04 #@! TF.FileFunction,Legend,Top*
G04 #@! TF.FilePolarity,Positive*
%FSLAX46Y46*%
G04 Gerber Fmt 4.6, Leading zero omitted, Abs format (unit mm)*
G04 Created by KiCad (PCBNEW 5.0.2-bee76a0~70~ubuntu18.04.1) date Mon 04 Nov 2019 11:53:34 AM EST*
%MOMM*%
%LPD*%
G01*
G04 APERTURE LIST*
%ADD10C,0.120000*%
%ADD11C,0.150000*%
%ADD12C,0.203200*%
G04 APERTURE END LIST*
D10*
G04 #@! TO.C,R1*
X36100000Y-93880000D02*
X36100000Y-94210000D01*
X42640000Y-93880000D02*
X36100000Y-93880000D01*
X42640000Y-94210000D02*
X42640000Y-93880000D01*
X36100000Y-96620000D02*
X36100000Y-96290000D01*
X42640000Y-96620000D02*
X36100000Y-96620000D01*
X42640000Y-96290000D02*
X42640000Y-96620000D01*
G04 #@! TO.C,R2*
X55340000Y-96620000D02*
X55340000Y-96290000D01*
X48800000Y-96620000D02*
X55340000Y-96620000D01*
X48800000Y-96290000D02*
X48800000Y-96620000D01*
X55340000Y-93880000D02*
X55340000Y-94210000D01*
X48800000Y-93880000D02*
X55340000Y-93880000D01*
X48800000Y-94210000D02*
X48800000Y-93880000D01*
G04 #@! TO.C,J3*
X46971000Y-93345000D02*
G75*
G03X46971000Y-93345000I-1251000J0D01*
G01*
G04 #@! TO.C,J4*
X31230000Y-128115000D02*
X31230000Y-125575000D01*
X31230000Y-128115000D02*
X33770000Y-128115000D01*
X31480000Y-127865000D02*
X31480000Y-118515000D01*
X59960000Y-127865000D02*
X31480000Y-127865000D01*
X59960000Y-118515000D02*
X59960000Y-127865000D01*
X31480000Y-118515000D02*
X59960000Y-118515000D01*
G04 #@! TO.C,J1*
D11*
X36496666Y-107902380D02*
X36496666Y-108616666D01*
X36449047Y-108759523D01*
X36353809Y-108854761D01*
X36210952Y-108902380D01*
X36115714Y-108902380D01*
X37496666Y-108902380D02*
X36925238Y-108902380D01*
X37210952Y-108902380D02*
X37210952Y-107902380D01*
X37115714Y-108045238D01*
X37020476Y-108140476D01*
X36925238Y-108188095D01*
D12*
X31350857Y-98618523D02*
X30625142Y-98618523D01*
X30988000Y-98618523D02*
X30988000Y-97348523D01*
X30867047Y-97529952D01*
X30746095Y-97650904D01*
X30625142Y-97711380D01*
G04 #@! TO.C,J2*
D11*
X55546666Y-107648380D02*
X55546666Y-108362666D01*
X55499047Y-108505523D01*
X55403809Y-108600761D01*
X55260952Y-108648380D01*
X55165714Y-108648380D01*
X55975238Y-107743619D02*
X56022857Y-107696000D01*
X56118095Y-107648380D01*
X56356190Y-107648380D01*
X56451428Y-107696000D01*
X56499047Y-107743619D01*
X56546666Y-107838857D01*
X56546666Y-107934095D01*
X56499047Y-108076952D01*
X55927619Y-108648380D01*
X56546666Y-108648380D01*
D12*
X50400857Y-98364523D02*
X49675142Y-98364523D01*
X50038000Y-98364523D02*
X50038000Y-97094523D01*
X49917047Y-97275952D01*
X49796095Y-97396904D01*
X49675142Y-97457380D01*
G04 #@! TO.C,R1*
D11*
X38949333Y-93289380D02*
X38616000Y-92813190D01*
X38377904Y-93289380D02*
X38377904Y-92289380D01*
X38758857Y-92289380D01*
X38854095Y-92337000D01*
X38901714Y-92384619D01*
X38949333Y-92479857D01*
X38949333Y-92622714D01*
X38901714Y-92717952D01*
X38854095Y-92765571D01*
X38758857Y-92813190D01*
X38377904Y-92813190D01*
X39901714Y-93289380D02*
X39330285Y-93289380D01*
X39616000Y-93289380D02*
X39616000Y-92289380D01*
X39520761Y-92432238D01*
X39425523Y-92527476D01*
X39330285Y-92575095D01*
G04 #@! TO.C,R2*
X51903333Y-93332380D02*
X51570000Y-92856190D01*
X51331904Y-93332380D02*
X51331904Y-92332380D01*
X51712857Y-92332380D01*
X51808095Y-92380000D01*
X51855714Y-92427619D01*
X51903333Y-92522857D01*
X51903333Y-92665714D01*
X51855714Y-92760952D01*
X51808095Y-92808571D01*
X51712857Y-92856190D01*
X51331904Y-92856190D01*
X52284285Y-92427619D02*
X52331904Y-92380000D01*
X52427142Y-92332380D01*
X52665238Y-92332380D01*
X52760476Y-92380000D01*
X52808095Y-92427619D01*
X52855714Y-92522857D01*
X52855714Y-92618095D01*
X52808095Y-92760952D01*
X52236666Y-93332380D01*
X52855714Y-93332380D01*
G04 #@! TO.C,J3*
X47418714Y-92908380D02*
X47418714Y-91908380D01*
X47418714Y-92384571D02*
X47990142Y-92384571D01*
X47990142Y-92908380D02*
X47990142Y-91908380D01*
X48323476Y-91908380D02*
X48656809Y-92908380D01*
X48990142Y-91908380D01*
G04 #@! TO.C,J4*
X29678380Y-123523333D02*
X30392666Y-123523333D01*
X30535523Y-123570952D01*
X30630761Y-123666190D01*
X30678380Y-123809047D01*
X30678380Y-123904285D01*
X30011714Y-122618571D02*
X30678380Y-122618571D01*
X29630761Y-122856666D02*
X30345047Y-123094761D01*
X30345047Y-122475714D01*
G04 #@! TD*
M02*
