M48
;DRILL file {KiCad 5.0.2-bee76a0~70~ubuntu18.04.1} date Mon 04 Nov 2019 11:53:39 AM EST
;FORMAT={-:-/ absolute / inch / decimal}
FMAT,2
INCH,TZ
T1C0.0157
T2C0.0315
T3C0.0394
T4C0.0400
T5C0.0850
T6C0.0984
%
G90
G05
T1
X2.005Y-4.73
X2.24Y-4.75
T2
X1.4Y-3.75
X1.7Y-3.75
X1.9Y-3.75
X2.2Y-3.75
T3
X1.8Y-3.675
T4
X1.45Y-4.8
X1.45Y-4.9
X1.55Y-4.8
X1.55Y-4.9
X1.65Y-4.8
X1.65Y-4.9
X1.75Y-4.8
X1.75Y-4.9
X1.85Y-4.8
X1.85Y-4.9
X1.95Y-4.8
X1.95Y-4.9
X2.05Y-4.8
X2.05Y-4.9
X2.15Y-4.8
X2.15Y-4.9
T5
X1.98Y-4.07
X1.98Y-4.24
X1.98Y-4.41
X2.051Y-3.934
X2.051Y-4.546
X2.2Y-3.9
X2.2Y-4.58
X2.349Y-3.934
X2.349Y-4.546
X2.42Y-4.07
X2.42Y-4.24
X2.42Y-4.41
X1.23Y-4.08
X1.23Y-4.25
X1.23Y-4.42
X1.301Y-3.944
X1.301Y-4.556
X1.45Y-3.91
X1.45Y-4.59
X1.599Y-3.944
X1.599Y-4.556
X1.67Y-4.08
X1.67Y-4.25
X1.67Y-4.42
T6
X2.375Y-3.725
X2.375Y-4.875
X1.225Y-3.725
X1.225Y-4.875
T0
M30
