G04 #@! TF.GenerationSoftware,KiCad,Pcbnew,5.0.2-bee76a0~70~ubuntu18.04.1*
G04 #@! TF.CreationDate,2019-11-04T11:53:34-05:00*
G04 #@! TF.ProjectId,socket,736f636b-6574-42e6-9b69-6361645f7063,rev?*
G04 #@! TF.SameCoordinates,Original*
G04 #@! TF.FileFunction,Soldermask,Top*
G04 #@! TF.FilePolarity,Negative*
%FSLAX46Y46*%
G04 Gerber Fmt 4.6, Leading zero omitted, Abs format (unit mm)*
G04 Created by KiCad (PCBNEW 5.0.2-bee76a0~70~ubuntu18.04.1) date Mon 04 Nov 2019 11:53:34 AM EST*
%MOMM*%
%LPD*%
G01*
G04 APERTURE LIST*
%ADD10C,0.100000*%
G04 APERTURE END LIST*
D10*
G36*
X61069096Y-121372033D02*
X61069098Y-121372034D01*
X61069099Y-121372034D01*
X61533352Y-121564333D01*
X61797314Y-121740707D01*
X61951171Y-121843511D01*
X62306489Y-122198829D01*
X62306491Y-122198832D01*
X62585667Y-122616648D01*
X62675945Y-122834600D01*
X62777967Y-123080904D01*
X62876000Y-123573747D01*
X62876000Y-124076253D01*
X62799668Y-124460000D01*
X62777966Y-124569099D01*
X62585667Y-125033352D01*
X62366495Y-125361366D01*
X62306489Y-125451171D01*
X61951171Y-125806489D01*
X61951168Y-125806491D01*
X61533352Y-126085667D01*
X61069099Y-126277966D01*
X61069098Y-126277966D01*
X61069096Y-126277967D01*
X60576253Y-126376000D01*
X60073747Y-126376000D01*
X59580904Y-126277967D01*
X59580902Y-126277966D01*
X59580901Y-126277966D01*
X59116648Y-126085667D01*
X58698832Y-125806491D01*
X58698829Y-125806489D01*
X58343511Y-125451171D01*
X58283505Y-125361366D01*
X58064333Y-125033352D01*
X57872034Y-124569099D01*
X57850333Y-124460000D01*
X57774000Y-124076253D01*
X57774000Y-123573747D01*
X57872033Y-123080904D01*
X57974055Y-122834600D01*
X58064333Y-122616648D01*
X58343509Y-122198832D01*
X58343511Y-122198829D01*
X58698829Y-121843511D01*
X58852686Y-121740707D01*
X59116648Y-121564333D01*
X59580901Y-121372034D01*
X59580902Y-121372034D01*
X59580904Y-121372033D01*
X60073747Y-121274000D01*
X60576253Y-121274000D01*
X61069096Y-121372033D01*
X61069096Y-121372033D01*
G37*
G36*
X31859096Y-121372033D02*
X31859098Y-121372034D01*
X31859099Y-121372034D01*
X32323352Y-121564333D01*
X32587314Y-121740707D01*
X32741171Y-121843511D01*
X33096489Y-122198829D01*
X33096491Y-122198832D01*
X33375667Y-122616648D01*
X33465945Y-122834600D01*
X33567967Y-123080904D01*
X33666000Y-123573747D01*
X33666000Y-124076253D01*
X33589668Y-124460000D01*
X33567966Y-124569099D01*
X33375667Y-125033352D01*
X33156495Y-125361366D01*
X33096489Y-125451171D01*
X32741171Y-125806489D01*
X32741168Y-125806491D01*
X32323352Y-126085667D01*
X31859099Y-126277966D01*
X31859098Y-126277966D01*
X31859096Y-126277967D01*
X31366253Y-126376000D01*
X30863747Y-126376000D01*
X30370904Y-126277967D01*
X30370902Y-126277966D01*
X30370901Y-126277966D01*
X29906648Y-126085667D01*
X29488832Y-125806491D01*
X29488829Y-125806489D01*
X29133511Y-125451171D01*
X29073505Y-125361366D01*
X28854333Y-125033352D01*
X28662034Y-124569099D01*
X28640333Y-124460000D01*
X28564000Y-124076253D01*
X28564000Y-123573747D01*
X28662033Y-123080904D01*
X28764055Y-122834600D01*
X28854333Y-122616648D01*
X29133509Y-122198832D01*
X29133511Y-122198829D01*
X29488829Y-121843511D01*
X29642686Y-121740707D01*
X29906648Y-121564333D01*
X30370901Y-121372034D01*
X30370902Y-121372034D01*
X30370904Y-121372033D01*
X30863747Y-121274000D01*
X31366253Y-121274000D01*
X31859096Y-121372033D01*
X31859096Y-121372033D01*
G37*
G36*
X54789294Y-123558633D02*
X54961694Y-123610931D01*
X54961696Y-123610932D01*
X55120583Y-123695859D01*
X55120585Y-123695860D01*
X55120584Y-123695860D01*
X55259849Y-123810151D01*
X55374140Y-123949416D01*
X55459069Y-124108306D01*
X55511367Y-124280706D01*
X55529025Y-124460000D01*
X55511367Y-124639294D01*
X55459069Y-124811694D01*
X55459068Y-124811696D01*
X55374141Y-124970583D01*
X55259849Y-125109849D01*
X55120583Y-125224141D01*
X54961696Y-125309068D01*
X54961694Y-125309069D01*
X54789294Y-125361367D01*
X54654931Y-125374600D01*
X54565069Y-125374600D01*
X54430706Y-125361367D01*
X54258306Y-125309069D01*
X54258304Y-125309068D01*
X54099417Y-125224141D01*
X53960151Y-125109849D01*
X53845859Y-124970583D01*
X53760932Y-124811696D01*
X53760931Y-124811694D01*
X53708633Y-124639294D01*
X53690975Y-124460000D01*
X53708633Y-124280706D01*
X53760931Y-124108306D01*
X53845860Y-123949416D01*
X53960151Y-123810151D01*
X54099416Y-123695860D01*
X54099415Y-123695860D01*
X54099417Y-123695859D01*
X54258304Y-123610932D01*
X54258306Y-123610931D01*
X54430706Y-123558633D01*
X54565069Y-123545400D01*
X54654931Y-123545400D01*
X54789294Y-123558633D01*
X54789294Y-123558633D01*
G37*
G36*
X37744600Y-125374600D02*
X35915400Y-125374600D01*
X35915400Y-123545400D01*
X37744600Y-123545400D01*
X37744600Y-125374600D01*
X37744600Y-125374600D01*
G37*
G36*
X39549294Y-123558633D02*
X39721694Y-123610931D01*
X39721696Y-123610932D01*
X39880583Y-123695859D01*
X39880585Y-123695860D01*
X39880584Y-123695860D01*
X40019849Y-123810151D01*
X40134140Y-123949416D01*
X40219069Y-124108306D01*
X40271367Y-124280706D01*
X40289025Y-124460000D01*
X40271367Y-124639294D01*
X40219069Y-124811694D01*
X40219068Y-124811696D01*
X40134141Y-124970583D01*
X40019849Y-125109849D01*
X39880583Y-125224141D01*
X39721696Y-125309068D01*
X39721694Y-125309069D01*
X39549294Y-125361367D01*
X39414931Y-125374600D01*
X39325069Y-125374600D01*
X39190706Y-125361367D01*
X39018306Y-125309069D01*
X39018304Y-125309068D01*
X38859417Y-125224141D01*
X38720151Y-125109849D01*
X38605859Y-124970583D01*
X38520932Y-124811696D01*
X38520931Y-124811694D01*
X38468633Y-124639294D01*
X38450975Y-124460000D01*
X38468633Y-124280706D01*
X38520931Y-124108306D01*
X38605860Y-123949416D01*
X38720151Y-123810151D01*
X38859416Y-123695860D01*
X38859415Y-123695860D01*
X38859417Y-123695859D01*
X39018304Y-123610932D01*
X39018306Y-123610931D01*
X39190706Y-123558633D01*
X39325069Y-123545400D01*
X39414931Y-123545400D01*
X39549294Y-123558633D01*
X39549294Y-123558633D01*
G37*
G36*
X42089294Y-123558633D02*
X42261694Y-123610931D01*
X42261696Y-123610932D01*
X42420583Y-123695859D01*
X42420585Y-123695860D01*
X42420584Y-123695860D01*
X42559849Y-123810151D01*
X42674140Y-123949416D01*
X42759069Y-124108306D01*
X42811367Y-124280706D01*
X42829025Y-124460000D01*
X42811367Y-124639294D01*
X42759069Y-124811694D01*
X42759068Y-124811696D01*
X42674141Y-124970583D01*
X42559849Y-125109849D01*
X42420583Y-125224141D01*
X42261696Y-125309068D01*
X42261694Y-125309069D01*
X42089294Y-125361367D01*
X41954931Y-125374600D01*
X41865069Y-125374600D01*
X41730706Y-125361367D01*
X41558306Y-125309069D01*
X41558304Y-125309068D01*
X41399417Y-125224141D01*
X41260151Y-125109849D01*
X41145859Y-124970583D01*
X41060932Y-124811696D01*
X41060931Y-124811694D01*
X41008633Y-124639294D01*
X40990975Y-124460000D01*
X41008633Y-124280706D01*
X41060931Y-124108306D01*
X41145860Y-123949416D01*
X41260151Y-123810151D01*
X41399416Y-123695860D01*
X41399415Y-123695860D01*
X41399417Y-123695859D01*
X41558304Y-123610932D01*
X41558306Y-123610931D01*
X41730706Y-123558633D01*
X41865069Y-123545400D01*
X41954931Y-123545400D01*
X42089294Y-123558633D01*
X42089294Y-123558633D01*
G37*
G36*
X44629294Y-123558633D02*
X44801694Y-123610931D01*
X44801696Y-123610932D01*
X44960583Y-123695859D01*
X44960585Y-123695860D01*
X44960584Y-123695860D01*
X45099849Y-123810151D01*
X45214140Y-123949416D01*
X45299069Y-124108306D01*
X45351367Y-124280706D01*
X45369025Y-124460000D01*
X45351367Y-124639294D01*
X45299069Y-124811694D01*
X45299068Y-124811696D01*
X45214141Y-124970583D01*
X45099849Y-125109849D01*
X44960583Y-125224141D01*
X44801696Y-125309068D01*
X44801694Y-125309069D01*
X44629294Y-125361367D01*
X44494931Y-125374600D01*
X44405069Y-125374600D01*
X44270706Y-125361367D01*
X44098306Y-125309069D01*
X44098304Y-125309068D01*
X43939417Y-125224141D01*
X43800151Y-125109849D01*
X43685859Y-124970583D01*
X43600932Y-124811696D01*
X43600931Y-124811694D01*
X43548633Y-124639294D01*
X43530975Y-124460000D01*
X43548633Y-124280706D01*
X43600931Y-124108306D01*
X43685860Y-123949416D01*
X43800151Y-123810151D01*
X43939416Y-123695860D01*
X43939415Y-123695860D01*
X43939417Y-123695859D01*
X44098304Y-123610932D01*
X44098306Y-123610931D01*
X44270706Y-123558633D01*
X44405069Y-123545400D01*
X44494931Y-123545400D01*
X44629294Y-123558633D01*
X44629294Y-123558633D01*
G37*
G36*
X47169294Y-123558633D02*
X47341694Y-123610931D01*
X47341696Y-123610932D01*
X47500583Y-123695859D01*
X47500585Y-123695860D01*
X47500584Y-123695860D01*
X47639849Y-123810151D01*
X47754140Y-123949416D01*
X47839069Y-124108306D01*
X47891367Y-124280706D01*
X47909025Y-124460000D01*
X47891367Y-124639294D01*
X47839069Y-124811694D01*
X47839068Y-124811696D01*
X47754141Y-124970583D01*
X47639849Y-125109849D01*
X47500583Y-125224141D01*
X47341696Y-125309068D01*
X47341694Y-125309069D01*
X47169294Y-125361367D01*
X47034931Y-125374600D01*
X46945069Y-125374600D01*
X46810706Y-125361367D01*
X46638306Y-125309069D01*
X46638304Y-125309068D01*
X46479417Y-125224141D01*
X46340151Y-125109849D01*
X46225859Y-124970583D01*
X46140932Y-124811696D01*
X46140931Y-124811694D01*
X46088633Y-124639294D01*
X46070975Y-124460000D01*
X46088633Y-124280706D01*
X46140931Y-124108306D01*
X46225860Y-123949416D01*
X46340151Y-123810151D01*
X46479416Y-123695860D01*
X46479415Y-123695860D01*
X46479417Y-123695859D01*
X46638304Y-123610932D01*
X46638306Y-123610931D01*
X46810706Y-123558633D01*
X46945069Y-123545400D01*
X47034931Y-123545400D01*
X47169294Y-123558633D01*
X47169294Y-123558633D01*
G37*
G36*
X52249294Y-123558633D02*
X52421694Y-123610931D01*
X52421696Y-123610932D01*
X52580583Y-123695859D01*
X52580585Y-123695860D01*
X52580584Y-123695860D01*
X52719849Y-123810151D01*
X52834140Y-123949416D01*
X52919069Y-124108306D01*
X52971367Y-124280706D01*
X52989025Y-124460000D01*
X52971367Y-124639294D01*
X52919069Y-124811694D01*
X52919068Y-124811696D01*
X52834141Y-124970583D01*
X52719849Y-125109849D01*
X52580583Y-125224141D01*
X52421696Y-125309068D01*
X52421694Y-125309069D01*
X52249294Y-125361367D01*
X52114931Y-125374600D01*
X52025069Y-125374600D01*
X51890706Y-125361367D01*
X51718306Y-125309069D01*
X51718304Y-125309068D01*
X51559417Y-125224141D01*
X51420151Y-125109849D01*
X51305859Y-124970583D01*
X51220932Y-124811696D01*
X51220931Y-124811694D01*
X51168633Y-124639294D01*
X51150975Y-124460000D01*
X51168633Y-124280706D01*
X51220931Y-124108306D01*
X51305860Y-123949416D01*
X51420151Y-123810151D01*
X51559416Y-123695860D01*
X51559415Y-123695860D01*
X51559417Y-123695859D01*
X51718304Y-123610932D01*
X51718306Y-123610931D01*
X51890706Y-123558633D01*
X52025069Y-123545400D01*
X52114931Y-123545400D01*
X52249294Y-123558633D01*
X52249294Y-123558633D01*
G37*
G36*
X49709294Y-123558633D02*
X49881694Y-123610931D01*
X49881696Y-123610932D01*
X50040583Y-123695859D01*
X50040585Y-123695860D01*
X50040584Y-123695860D01*
X50179849Y-123810151D01*
X50294140Y-123949416D01*
X50379069Y-124108306D01*
X50431367Y-124280706D01*
X50449025Y-124460000D01*
X50431367Y-124639294D01*
X50379069Y-124811694D01*
X50379068Y-124811696D01*
X50294141Y-124970583D01*
X50179849Y-125109849D01*
X50040583Y-125224141D01*
X49881696Y-125309068D01*
X49881694Y-125309069D01*
X49709294Y-125361367D01*
X49574931Y-125374600D01*
X49485069Y-125374600D01*
X49350706Y-125361367D01*
X49178306Y-125309069D01*
X49178304Y-125309068D01*
X49019417Y-125224141D01*
X48880151Y-125109849D01*
X48765859Y-124970583D01*
X48680932Y-124811696D01*
X48680931Y-124811694D01*
X48628633Y-124639294D01*
X48610975Y-124460000D01*
X48628633Y-124280706D01*
X48680931Y-124108306D01*
X48765860Y-123949416D01*
X48880151Y-123810151D01*
X49019416Y-123695860D01*
X49019415Y-123695860D01*
X49019417Y-123695859D01*
X49178304Y-123610932D01*
X49178306Y-123610931D01*
X49350706Y-123558633D01*
X49485069Y-123545400D01*
X49574931Y-123545400D01*
X49709294Y-123558633D01*
X49709294Y-123558633D01*
G37*
G36*
X44629294Y-121018633D02*
X44801694Y-121070931D01*
X44801696Y-121070932D01*
X44960583Y-121155859D01*
X44960585Y-121155860D01*
X44960584Y-121155860D01*
X45099849Y-121270151D01*
X45214140Y-121409416D01*
X45299069Y-121568306D01*
X45351367Y-121740706D01*
X45369025Y-121920000D01*
X45351367Y-122099294D01*
X45299069Y-122271694D01*
X45299068Y-122271696D01*
X45214141Y-122430583D01*
X45099849Y-122569849D01*
X44960583Y-122684141D01*
X44801696Y-122769068D01*
X44801694Y-122769069D01*
X44629294Y-122821367D01*
X44494931Y-122834600D01*
X44405069Y-122834600D01*
X44270706Y-122821367D01*
X44098306Y-122769069D01*
X44098304Y-122769068D01*
X43939417Y-122684141D01*
X43800151Y-122569849D01*
X43685859Y-122430583D01*
X43600932Y-122271696D01*
X43600931Y-122271694D01*
X43548633Y-122099294D01*
X43530975Y-121920000D01*
X43548633Y-121740706D01*
X43600931Y-121568306D01*
X43685860Y-121409416D01*
X43800151Y-121270151D01*
X43939416Y-121155860D01*
X43939415Y-121155860D01*
X43939417Y-121155859D01*
X44098304Y-121070932D01*
X44098306Y-121070931D01*
X44270706Y-121018633D01*
X44405069Y-121005400D01*
X44494931Y-121005400D01*
X44629294Y-121018633D01*
X44629294Y-121018633D01*
G37*
G36*
X49709294Y-121018633D02*
X49881694Y-121070931D01*
X49881696Y-121070932D01*
X50040583Y-121155859D01*
X50040585Y-121155860D01*
X50040584Y-121155860D01*
X50179849Y-121270151D01*
X50294140Y-121409416D01*
X50379069Y-121568306D01*
X50431367Y-121740706D01*
X50449025Y-121920000D01*
X50431367Y-122099294D01*
X50379069Y-122271694D01*
X50379068Y-122271696D01*
X50294141Y-122430583D01*
X50179849Y-122569849D01*
X50040583Y-122684141D01*
X49881696Y-122769068D01*
X49881694Y-122769069D01*
X49709294Y-122821367D01*
X49574931Y-122834600D01*
X49485069Y-122834600D01*
X49350706Y-122821367D01*
X49178306Y-122769069D01*
X49178304Y-122769068D01*
X49019417Y-122684141D01*
X48880151Y-122569849D01*
X48765859Y-122430583D01*
X48680932Y-122271696D01*
X48680931Y-122271694D01*
X48628633Y-122099294D01*
X48610975Y-121920000D01*
X48628633Y-121740706D01*
X48680931Y-121568306D01*
X48765860Y-121409416D01*
X48880151Y-121270151D01*
X49019416Y-121155860D01*
X49019415Y-121155860D01*
X49019417Y-121155859D01*
X49178304Y-121070932D01*
X49178306Y-121070931D01*
X49350706Y-121018633D01*
X49485069Y-121005400D01*
X49574931Y-121005400D01*
X49709294Y-121018633D01*
X49709294Y-121018633D01*
G37*
G36*
X52249294Y-121018633D02*
X52421694Y-121070931D01*
X52421696Y-121070932D01*
X52580583Y-121155859D01*
X52580585Y-121155860D01*
X52580584Y-121155860D01*
X52719849Y-121270151D01*
X52834140Y-121409416D01*
X52919069Y-121568306D01*
X52971367Y-121740706D01*
X52989025Y-121920000D01*
X52971367Y-122099294D01*
X52919069Y-122271694D01*
X52919068Y-122271696D01*
X52834141Y-122430583D01*
X52719849Y-122569849D01*
X52580583Y-122684141D01*
X52421696Y-122769068D01*
X52421694Y-122769069D01*
X52249294Y-122821367D01*
X52114931Y-122834600D01*
X52025069Y-122834600D01*
X51890706Y-122821367D01*
X51718306Y-122769069D01*
X51718304Y-122769068D01*
X51559417Y-122684141D01*
X51420151Y-122569849D01*
X51305859Y-122430583D01*
X51220932Y-122271696D01*
X51220931Y-122271694D01*
X51168633Y-122099294D01*
X51150975Y-121920000D01*
X51168633Y-121740706D01*
X51220931Y-121568306D01*
X51305860Y-121409416D01*
X51420151Y-121270151D01*
X51559416Y-121155860D01*
X51559415Y-121155860D01*
X51559417Y-121155859D01*
X51718304Y-121070932D01*
X51718306Y-121070931D01*
X51890706Y-121018633D01*
X52025069Y-121005400D01*
X52114931Y-121005400D01*
X52249294Y-121018633D01*
X52249294Y-121018633D01*
G37*
G36*
X47169294Y-121018633D02*
X47341694Y-121070931D01*
X47341696Y-121070932D01*
X47500583Y-121155859D01*
X47500585Y-121155860D01*
X47500584Y-121155860D01*
X47639849Y-121270151D01*
X47754140Y-121409416D01*
X47839069Y-121568306D01*
X47891367Y-121740706D01*
X47909025Y-121920000D01*
X47891367Y-122099294D01*
X47839069Y-122271694D01*
X47839068Y-122271696D01*
X47754141Y-122430583D01*
X47639849Y-122569849D01*
X47500583Y-122684141D01*
X47341696Y-122769068D01*
X47341694Y-122769069D01*
X47169294Y-122821367D01*
X47034931Y-122834600D01*
X46945069Y-122834600D01*
X46810706Y-122821367D01*
X46638306Y-122769069D01*
X46638304Y-122769068D01*
X46479417Y-122684141D01*
X46340151Y-122569849D01*
X46225859Y-122430583D01*
X46140932Y-122271696D01*
X46140931Y-122271694D01*
X46088633Y-122099294D01*
X46070975Y-121920000D01*
X46088633Y-121740706D01*
X46140931Y-121568306D01*
X46225860Y-121409416D01*
X46340151Y-121270151D01*
X46479416Y-121155860D01*
X46479415Y-121155860D01*
X46479417Y-121155859D01*
X46638304Y-121070932D01*
X46638306Y-121070931D01*
X46810706Y-121018633D01*
X46945069Y-121005400D01*
X47034931Y-121005400D01*
X47169294Y-121018633D01*
X47169294Y-121018633D01*
G37*
G36*
X54789294Y-121018633D02*
X54961694Y-121070931D01*
X54961696Y-121070932D01*
X55120583Y-121155859D01*
X55120585Y-121155860D01*
X55120584Y-121155860D01*
X55259849Y-121270151D01*
X55374140Y-121409416D01*
X55459069Y-121568306D01*
X55511367Y-121740706D01*
X55529025Y-121920000D01*
X55511367Y-122099294D01*
X55459069Y-122271694D01*
X55459068Y-122271696D01*
X55374141Y-122430583D01*
X55259849Y-122569849D01*
X55120583Y-122684141D01*
X54961696Y-122769068D01*
X54961694Y-122769069D01*
X54789294Y-122821367D01*
X54654931Y-122834600D01*
X54565069Y-122834600D01*
X54430706Y-122821367D01*
X54258306Y-122769069D01*
X54258304Y-122769068D01*
X54099417Y-122684141D01*
X53960151Y-122569849D01*
X53845859Y-122430583D01*
X53760932Y-122271696D01*
X53760931Y-122271694D01*
X53708633Y-122099294D01*
X53690975Y-121920000D01*
X53708633Y-121740706D01*
X53760931Y-121568306D01*
X53845860Y-121409416D01*
X53960151Y-121270151D01*
X54099416Y-121155860D01*
X54099415Y-121155860D01*
X54099417Y-121155859D01*
X54258304Y-121070932D01*
X54258306Y-121070931D01*
X54430706Y-121018633D01*
X54565069Y-121005400D01*
X54654931Y-121005400D01*
X54789294Y-121018633D01*
X54789294Y-121018633D01*
G37*
G36*
X42089294Y-121018633D02*
X42261694Y-121070931D01*
X42261696Y-121070932D01*
X42420583Y-121155859D01*
X42420585Y-121155860D01*
X42420584Y-121155860D01*
X42559849Y-121270151D01*
X42674140Y-121409416D01*
X42759069Y-121568306D01*
X42811367Y-121740706D01*
X42829025Y-121920000D01*
X42811367Y-122099294D01*
X42759069Y-122271694D01*
X42759068Y-122271696D01*
X42674141Y-122430583D01*
X42559849Y-122569849D01*
X42420583Y-122684141D01*
X42261696Y-122769068D01*
X42261694Y-122769069D01*
X42089294Y-122821367D01*
X41954931Y-122834600D01*
X41865069Y-122834600D01*
X41730706Y-122821367D01*
X41558306Y-122769069D01*
X41558304Y-122769068D01*
X41399417Y-122684141D01*
X41260151Y-122569849D01*
X41145859Y-122430583D01*
X41060932Y-122271696D01*
X41060931Y-122271694D01*
X41008633Y-122099294D01*
X40990975Y-121920000D01*
X41008633Y-121740706D01*
X41060931Y-121568306D01*
X41145860Y-121409416D01*
X41260151Y-121270151D01*
X41399416Y-121155860D01*
X41399415Y-121155860D01*
X41399417Y-121155859D01*
X41558304Y-121070932D01*
X41558306Y-121070931D01*
X41730706Y-121018633D01*
X41865069Y-121005400D01*
X41954931Y-121005400D01*
X42089294Y-121018633D01*
X42089294Y-121018633D01*
G37*
G36*
X39549294Y-121018633D02*
X39721694Y-121070931D01*
X39721696Y-121070932D01*
X39880583Y-121155859D01*
X39880585Y-121155860D01*
X39880584Y-121155860D01*
X40019849Y-121270151D01*
X40134140Y-121409416D01*
X40219069Y-121568306D01*
X40271367Y-121740706D01*
X40289025Y-121920000D01*
X40271367Y-122099294D01*
X40219069Y-122271694D01*
X40219068Y-122271696D01*
X40134141Y-122430583D01*
X40019849Y-122569849D01*
X39880583Y-122684141D01*
X39721696Y-122769068D01*
X39721694Y-122769069D01*
X39549294Y-122821367D01*
X39414931Y-122834600D01*
X39325069Y-122834600D01*
X39190706Y-122821367D01*
X39018306Y-122769069D01*
X39018304Y-122769068D01*
X38859417Y-122684141D01*
X38720151Y-122569849D01*
X38605859Y-122430583D01*
X38520932Y-122271696D01*
X38520931Y-122271694D01*
X38468633Y-122099294D01*
X38450975Y-121920000D01*
X38468633Y-121740706D01*
X38520931Y-121568306D01*
X38605860Y-121409416D01*
X38720151Y-121270151D01*
X38859416Y-121155860D01*
X38859415Y-121155860D01*
X38859417Y-121155859D01*
X39018304Y-121070932D01*
X39018306Y-121070931D01*
X39190706Y-121018633D01*
X39325069Y-121005400D01*
X39414931Y-121005400D01*
X39549294Y-121018633D01*
X39549294Y-121018633D01*
G37*
G36*
X37009294Y-121018633D02*
X37181694Y-121070931D01*
X37181696Y-121070932D01*
X37340583Y-121155859D01*
X37340585Y-121155860D01*
X37340584Y-121155860D01*
X37479849Y-121270151D01*
X37594140Y-121409416D01*
X37679069Y-121568306D01*
X37731367Y-121740706D01*
X37749025Y-121920000D01*
X37731367Y-122099294D01*
X37679069Y-122271694D01*
X37679068Y-122271696D01*
X37594141Y-122430583D01*
X37479849Y-122569849D01*
X37340583Y-122684141D01*
X37181696Y-122769068D01*
X37181694Y-122769069D01*
X37009294Y-122821367D01*
X36874931Y-122834600D01*
X36785069Y-122834600D01*
X36650706Y-122821367D01*
X36478306Y-122769069D01*
X36478304Y-122769068D01*
X36319417Y-122684141D01*
X36180151Y-122569849D01*
X36065859Y-122430583D01*
X35980932Y-122271696D01*
X35980931Y-122271694D01*
X35928633Y-122099294D01*
X35910975Y-121920000D01*
X35928633Y-121740706D01*
X35980931Y-121568306D01*
X36065860Y-121409416D01*
X36180151Y-121270151D01*
X36319416Y-121155860D01*
X36319415Y-121155860D01*
X36319417Y-121155859D01*
X36478304Y-121070932D01*
X36478306Y-121070931D01*
X36650706Y-121018633D01*
X36785069Y-121005400D01*
X36874931Y-121005400D01*
X37009294Y-121018633D01*
X37009294Y-121018633D01*
G37*
G36*
X37112491Y-115165823D02*
X37252366Y-115193646D01*
X37515885Y-115302799D01*
X37674757Y-115408954D01*
X37753049Y-115461267D01*
X37954733Y-115662951D01*
X37954735Y-115662954D01*
X38113201Y-115900115D01*
X38222354Y-116163634D01*
X38222354Y-116163635D01*
X38267670Y-116391449D01*
X38278000Y-116443384D01*
X38278000Y-116728616D01*
X38222354Y-117008366D01*
X38113201Y-117271885D01*
X37989689Y-117456733D01*
X37954733Y-117509049D01*
X37753049Y-117710733D01*
X37753046Y-117710735D01*
X37515885Y-117869201D01*
X37252366Y-117978354D01*
X37112491Y-118006177D01*
X36972617Y-118034000D01*
X36687383Y-118034000D01*
X36547509Y-118006177D01*
X36407634Y-117978354D01*
X36144115Y-117869201D01*
X35906954Y-117710735D01*
X35906951Y-117710733D01*
X35705267Y-117509049D01*
X35670311Y-117456733D01*
X35546799Y-117271885D01*
X35437646Y-117008366D01*
X35382000Y-116728616D01*
X35382000Y-116443384D01*
X35392331Y-116391449D01*
X35437646Y-116163635D01*
X35437646Y-116163634D01*
X35546799Y-115900115D01*
X35705265Y-115662954D01*
X35705267Y-115662951D01*
X35906951Y-115461267D01*
X35985243Y-115408954D01*
X36144115Y-115302799D01*
X36407634Y-115193646D01*
X36547509Y-115165823D01*
X36687383Y-115138000D01*
X36972617Y-115138000D01*
X37112491Y-115165823D01*
X37112491Y-115165823D01*
G37*
G36*
X56162491Y-114911823D02*
X56302366Y-114939646D01*
X56565885Y-115048799D01*
X56782664Y-115193646D01*
X56803049Y-115207267D01*
X57004733Y-115408951D01*
X57004735Y-115408954D01*
X57163201Y-115646115D01*
X57272354Y-115909634D01*
X57328000Y-116189384D01*
X57328000Y-116474616D01*
X57272354Y-116754366D01*
X57163201Y-117017885D01*
X57005802Y-117253449D01*
X57004733Y-117255049D01*
X56803049Y-117456733D01*
X56803046Y-117456735D01*
X56565885Y-117615201D01*
X56302366Y-117724354D01*
X56162491Y-117752177D01*
X56022617Y-117780000D01*
X55737383Y-117780000D01*
X55597509Y-117752177D01*
X55457634Y-117724354D01*
X55194115Y-117615201D01*
X54956954Y-117456735D01*
X54956951Y-117456733D01*
X54755267Y-117255049D01*
X54754198Y-117253449D01*
X54596799Y-117017885D01*
X54487646Y-116754366D01*
X54432000Y-116474616D01*
X54432000Y-116189384D01*
X54487646Y-115909634D01*
X54596799Y-115646115D01*
X54755265Y-115408954D01*
X54755267Y-115408951D01*
X54956951Y-115207267D01*
X54977336Y-115193646D01*
X55194115Y-115048799D01*
X55457634Y-114939646D01*
X55597509Y-114911823D01*
X55737383Y-114884000D01*
X56022617Y-114884000D01*
X56162491Y-114911823D01*
X56162491Y-114911823D01*
G37*
G36*
X40897091Y-114302223D02*
X41036966Y-114330046D01*
X41300485Y-114439199D01*
X41459357Y-114545354D01*
X41537649Y-114597667D01*
X41739333Y-114799351D01*
X41739335Y-114799354D01*
X41897801Y-115036515D01*
X42006954Y-115300034D01*
X42062600Y-115579784D01*
X42062600Y-115865016D01*
X42006954Y-116144766D01*
X41897801Y-116408285D01*
X41853480Y-116474616D01*
X41739333Y-116645449D01*
X41537649Y-116847133D01*
X41537646Y-116847135D01*
X41300485Y-117005601D01*
X41036966Y-117114754D01*
X40897091Y-117142577D01*
X40757217Y-117170400D01*
X40471983Y-117170400D01*
X40332109Y-117142577D01*
X40192234Y-117114754D01*
X39928715Y-117005601D01*
X39691554Y-116847135D01*
X39691551Y-116847133D01*
X39489867Y-116645449D01*
X39375720Y-116474616D01*
X39331399Y-116408285D01*
X39222246Y-116144766D01*
X39166600Y-115865016D01*
X39166600Y-115579784D01*
X39222246Y-115300034D01*
X39331399Y-115036515D01*
X39489865Y-114799354D01*
X39489867Y-114799351D01*
X39691551Y-114597667D01*
X39769843Y-114545354D01*
X39928715Y-114439199D01*
X40192234Y-114330046D01*
X40332109Y-114302223D01*
X40471983Y-114274400D01*
X40757217Y-114274400D01*
X40897091Y-114302223D01*
X40897091Y-114302223D01*
G37*
G36*
X33327891Y-114302223D02*
X33467766Y-114330046D01*
X33731285Y-114439199D01*
X33890157Y-114545354D01*
X33968449Y-114597667D01*
X34170133Y-114799351D01*
X34170135Y-114799354D01*
X34328601Y-115036515D01*
X34437754Y-115300034D01*
X34493400Y-115579784D01*
X34493400Y-115865016D01*
X34437754Y-116144766D01*
X34328601Y-116408285D01*
X34284280Y-116474616D01*
X34170133Y-116645449D01*
X33968449Y-116847133D01*
X33968446Y-116847135D01*
X33731285Y-117005601D01*
X33467766Y-117114754D01*
X33327891Y-117142577D01*
X33188017Y-117170400D01*
X32902783Y-117170400D01*
X32762909Y-117142577D01*
X32623034Y-117114754D01*
X32359515Y-117005601D01*
X32122354Y-116847135D01*
X32122351Y-116847133D01*
X31920667Y-116645449D01*
X31806520Y-116474616D01*
X31762199Y-116408285D01*
X31653046Y-116144766D01*
X31597400Y-115865016D01*
X31597400Y-115579784D01*
X31653046Y-115300034D01*
X31762199Y-115036515D01*
X31920665Y-114799354D01*
X31920667Y-114799351D01*
X32122351Y-114597667D01*
X32200643Y-114545354D01*
X32359515Y-114439199D01*
X32623034Y-114330046D01*
X32762909Y-114302223D01*
X32902783Y-114274400D01*
X33188017Y-114274400D01*
X33327891Y-114302223D01*
X33327891Y-114302223D01*
G37*
G36*
X59947091Y-114048223D02*
X60086966Y-114076046D01*
X60350485Y-114185199D01*
X60567264Y-114330046D01*
X60587649Y-114343667D01*
X60789333Y-114545351D01*
X60789335Y-114545354D01*
X60947801Y-114782515D01*
X61056954Y-115046034D01*
X61056954Y-115046035D01*
X61112600Y-115325783D01*
X61112600Y-115611017D01*
X61102269Y-115662954D01*
X61056954Y-115890766D01*
X60947801Y-116154285D01*
X60790402Y-116389849D01*
X60789333Y-116391449D01*
X60587649Y-116593133D01*
X60587646Y-116593135D01*
X60350485Y-116751601D01*
X60086966Y-116860754D01*
X59947091Y-116888577D01*
X59807217Y-116916400D01*
X59521983Y-116916400D01*
X59382109Y-116888577D01*
X59242234Y-116860754D01*
X58978715Y-116751601D01*
X58741554Y-116593135D01*
X58741551Y-116593133D01*
X58539867Y-116391449D01*
X58538798Y-116389849D01*
X58381399Y-116154285D01*
X58272246Y-115890766D01*
X58226931Y-115662954D01*
X58216600Y-115611017D01*
X58216600Y-115325783D01*
X58272246Y-115046035D01*
X58272246Y-115046034D01*
X58381399Y-114782515D01*
X58539865Y-114545354D01*
X58539867Y-114545351D01*
X58741551Y-114343667D01*
X58761936Y-114330046D01*
X58978715Y-114185199D01*
X59242234Y-114076046D01*
X59382109Y-114048223D01*
X59521983Y-114020400D01*
X59807217Y-114020400D01*
X59947091Y-114048223D01*
X59947091Y-114048223D01*
G37*
G36*
X52377891Y-114048223D02*
X52517766Y-114076046D01*
X52781285Y-114185199D01*
X52998064Y-114330046D01*
X53018449Y-114343667D01*
X53220133Y-114545351D01*
X53220135Y-114545354D01*
X53378601Y-114782515D01*
X53487754Y-115046034D01*
X53487754Y-115046035D01*
X53543400Y-115325783D01*
X53543400Y-115611017D01*
X53533069Y-115662954D01*
X53487754Y-115890766D01*
X53378601Y-116154285D01*
X53221202Y-116389849D01*
X53220133Y-116391449D01*
X53018449Y-116593133D01*
X53018446Y-116593135D01*
X52781285Y-116751601D01*
X52517766Y-116860754D01*
X52377891Y-116888577D01*
X52238017Y-116916400D01*
X51952783Y-116916400D01*
X51812909Y-116888577D01*
X51673034Y-116860754D01*
X51409515Y-116751601D01*
X51172354Y-116593135D01*
X51172351Y-116593133D01*
X50970667Y-116391449D01*
X50969598Y-116389849D01*
X50812199Y-116154285D01*
X50703046Y-115890766D01*
X50657731Y-115662954D01*
X50647400Y-115611017D01*
X50647400Y-115325783D01*
X50703046Y-115046035D01*
X50703046Y-115046034D01*
X50812199Y-114782515D01*
X50970665Y-114545354D01*
X50970667Y-114545351D01*
X51172351Y-114343667D01*
X51192736Y-114330046D01*
X51409515Y-114185199D01*
X51673034Y-114076046D01*
X51812909Y-114048223D01*
X51952783Y-114020400D01*
X52238017Y-114020400D01*
X52377891Y-114048223D01*
X52377891Y-114048223D01*
G37*
G36*
X42700491Y-110847823D02*
X42840366Y-110875646D01*
X43103885Y-110984799D01*
X43262757Y-111090954D01*
X43341049Y-111143267D01*
X43542733Y-111344951D01*
X43542735Y-111344954D01*
X43701201Y-111582115D01*
X43810354Y-111845634D01*
X43866000Y-112125384D01*
X43866000Y-112410616D01*
X43810354Y-112690366D01*
X43701201Y-112953885D01*
X43577689Y-113138733D01*
X43542733Y-113191049D01*
X43341049Y-113392733D01*
X43341046Y-113392735D01*
X43103885Y-113551201D01*
X42840366Y-113660354D01*
X42700491Y-113688177D01*
X42560617Y-113716000D01*
X42275383Y-113716000D01*
X42135509Y-113688177D01*
X41995634Y-113660354D01*
X41732115Y-113551201D01*
X41494954Y-113392735D01*
X41494951Y-113392733D01*
X41293267Y-113191049D01*
X41258311Y-113138733D01*
X41134799Y-112953885D01*
X41025646Y-112690366D01*
X40970000Y-112410616D01*
X40970000Y-112125384D01*
X41025646Y-111845634D01*
X41134799Y-111582115D01*
X41293265Y-111344954D01*
X41293267Y-111344951D01*
X41494951Y-111143267D01*
X41573243Y-111090954D01*
X41732115Y-110984799D01*
X41995634Y-110875646D01*
X42135509Y-110847823D01*
X42275383Y-110820000D01*
X42560617Y-110820000D01*
X42700491Y-110847823D01*
X42700491Y-110847823D01*
G37*
G36*
X31524491Y-110847823D02*
X31664366Y-110875646D01*
X31927885Y-110984799D01*
X32086757Y-111090954D01*
X32165049Y-111143267D01*
X32366733Y-111344951D01*
X32366735Y-111344954D01*
X32525201Y-111582115D01*
X32634354Y-111845634D01*
X32690000Y-112125384D01*
X32690000Y-112410616D01*
X32634354Y-112690366D01*
X32525201Y-112953885D01*
X32401689Y-113138733D01*
X32366733Y-113191049D01*
X32165049Y-113392733D01*
X32165046Y-113392735D01*
X31927885Y-113551201D01*
X31664366Y-113660354D01*
X31524491Y-113688177D01*
X31384617Y-113716000D01*
X31099383Y-113716000D01*
X30959509Y-113688177D01*
X30819634Y-113660354D01*
X30556115Y-113551201D01*
X30318954Y-113392735D01*
X30318951Y-113392733D01*
X30117267Y-113191049D01*
X30082311Y-113138733D01*
X29958799Y-112953885D01*
X29849646Y-112690366D01*
X29794000Y-112410616D01*
X29794000Y-112125384D01*
X29849646Y-111845634D01*
X29958799Y-111582115D01*
X30117265Y-111344954D01*
X30117267Y-111344951D01*
X30318951Y-111143267D01*
X30397243Y-111090954D01*
X30556115Y-110984799D01*
X30819634Y-110875646D01*
X30959509Y-110847823D01*
X31099383Y-110820000D01*
X31384617Y-110820000D01*
X31524491Y-110847823D01*
X31524491Y-110847823D01*
G37*
G36*
X61750491Y-110593823D02*
X61890366Y-110621646D01*
X62153885Y-110730799D01*
X62370664Y-110875646D01*
X62391049Y-110889267D01*
X62592733Y-111090951D01*
X62592735Y-111090954D01*
X62751201Y-111328115D01*
X62860354Y-111591634D01*
X62916000Y-111871384D01*
X62916000Y-112156616D01*
X62860354Y-112436366D01*
X62751201Y-112699885D01*
X62593802Y-112935449D01*
X62592733Y-112937049D01*
X62391049Y-113138733D01*
X62391046Y-113138735D01*
X62153885Y-113297201D01*
X61890366Y-113406354D01*
X61750491Y-113434177D01*
X61610617Y-113462000D01*
X61325383Y-113462000D01*
X61185509Y-113434177D01*
X61045634Y-113406354D01*
X60782115Y-113297201D01*
X60544954Y-113138735D01*
X60544951Y-113138733D01*
X60343267Y-112937049D01*
X60342198Y-112935449D01*
X60184799Y-112699885D01*
X60075646Y-112436366D01*
X60020000Y-112156616D01*
X60020000Y-111871384D01*
X60075646Y-111591634D01*
X60184799Y-111328115D01*
X60343265Y-111090954D01*
X60343267Y-111090951D01*
X60544951Y-110889267D01*
X60565336Y-110875646D01*
X60782115Y-110730799D01*
X61045634Y-110621646D01*
X61185509Y-110593823D01*
X61325383Y-110566000D01*
X61610617Y-110566000D01*
X61750491Y-110593823D01*
X61750491Y-110593823D01*
G37*
G36*
X50574491Y-110593823D02*
X50714366Y-110621646D01*
X50977885Y-110730799D01*
X51194664Y-110875646D01*
X51215049Y-110889267D01*
X51416733Y-111090951D01*
X51416735Y-111090954D01*
X51575201Y-111328115D01*
X51684354Y-111591634D01*
X51740000Y-111871384D01*
X51740000Y-112156616D01*
X51684354Y-112436366D01*
X51575201Y-112699885D01*
X51417802Y-112935449D01*
X51416733Y-112937049D01*
X51215049Y-113138733D01*
X51215046Y-113138735D01*
X50977885Y-113297201D01*
X50714366Y-113406354D01*
X50574491Y-113434177D01*
X50434617Y-113462000D01*
X50149383Y-113462000D01*
X50009509Y-113434177D01*
X49869634Y-113406354D01*
X49606115Y-113297201D01*
X49368954Y-113138735D01*
X49368951Y-113138733D01*
X49167267Y-112937049D01*
X49166198Y-112935449D01*
X49008799Y-112699885D01*
X48899646Y-112436366D01*
X48844000Y-112156616D01*
X48844000Y-111871384D01*
X48899646Y-111591634D01*
X49008799Y-111328115D01*
X49167265Y-111090954D01*
X49167267Y-111090951D01*
X49368951Y-110889267D01*
X49389336Y-110875646D01*
X49606115Y-110730799D01*
X49869634Y-110621646D01*
X50009509Y-110593823D01*
X50149383Y-110566000D01*
X50434617Y-110566000D01*
X50574491Y-110593823D01*
X50574491Y-110593823D01*
G37*
G36*
X31524491Y-106529823D02*
X31664366Y-106557646D01*
X31927885Y-106666799D01*
X32086757Y-106772954D01*
X32165049Y-106825267D01*
X32366733Y-107026951D01*
X32366735Y-107026954D01*
X32525201Y-107264115D01*
X32634354Y-107527634D01*
X32690000Y-107807384D01*
X32690000Y-108092616D01*
X32634354Y-108372366D01*
X32525201Y-108635885D01*
X32401689Y-108820733D01*
X32366733Y-108873049D01*
X32165049Y-109074733D01*
X32165046Y-109074735D01*
X31927885Y-109233201D01*
X31664366Y-109342354D01*
X31524491Y-109370177D01*
X31384617Y-109398000D01*
X31099383Y-109398000D01*
X30959509Y-109370177D01*
X30819634Y-109342354D01*
X30556115Y-109233201D01*
X30318954Y-109074735D01*
X30318951Y-109074733D01*
X30117267Y-108873049D01*
X30082311Y-108820733D01*
X29958799Y-108635885D01*
X29849646Y-108372366D01*
X29794000Y-108092616D01*
X29794000Y-107807384D01*
X29849646Y-107527634D01*
X29958799Y-107264115D01*
X30117265Y-107026954D01*
X30117267Y-107026951D01*
X30318951Y-106825267D01*
X30397243Y-106772954D01*
X30556115Y-106666799D01*
X30819634Y-106557646D01*
X30959509Y-106529823D01*
X31099383Y-106502000D01*
X31384617Y-106502000D01*
X31524491Y-106529823D01*
X31524491Y-106529823D01*
G37*
G36*
X42700491Y-106529823D02*
X42840366Y-106557646D01*
X43103885Y-106666799D01*
X43262757Y-106772954D01*
X43341049Y-106825267D01*
X43542733Y-107026951D01*
X43542735Y-107026954D01*
X43701201Y-107264115D01*
X43810354Y-107527634D01*
X43866000Y-107807384D01*
X43866000Y-108092616D01*
X43810354Y-108372366D01*
X43701201Y-108635885D01*
X43577689Y-108820733D01*
X43542733Y-108873049D01*
X43341049Y-109074733D01*
X43341046Y-109074735D01*
X43103885Y-109233201D01*
X42840366Y-109342354D01*
X42700491Y-109370177D01*
X42560617Y-109398000D01*
X42275383Y-109398000D01*
X42135509Y-109370177D01*
X41995634Y-109342354D01*
X41732115Y-109233201D01*
X41494954Y-109074735D01*
X41494951Y-109074733D01*
X41293267Y-108873049D01*
X41258311Y-108820733D01*
X41134799Y-108635885D01*
X41025646Y-108372366D01*
X40970000Y-108092616D01*
X40970000Y-107807384D01*
X41025646Y-107527634D01*
X41134799Y-107264115D01*
X41293265Y-107026954D01*
X41293267Y-107026951D01*
X41494951Y-106825267D01*
X41573243Y-106772954D01*
X41732115Y-106666799D01*
X41995634Y-106557646D01*
X42135509Y-106529823D01*
X42275383Y-106502000D01*
X42560617Y-106502000D01*
X42700491Y-106529823D01*
X42700491Y-106529823D01*
G37*
G36*
X61750491Y-106275823D02*
X61890366Y-106303646D01*
X62153885Y-106412799D01*
X62370664Y-106557646D01*
X62391049Y-106571267D01*
X62592733Y-106772951D01*
X62592735Y-106772954D01*
X62751201Y-107010115D01*
X62860354Y-107273634D01*
X62916000Y-107553384D01*
X62916000Y-107838616D01*
X62860354Y-108118366D01*
X62751201Y-108381885D01*
X62593802Y-108617449D01*
X62592733Y-108619049D01*
X62391049Y-108820733D01*
X62391046Y-108820735D01*
X62153885Y-108979201D01*
X61890366Y-109088354D01*
X61750491Y-109116177D01*
X61610617Y-109144000D01*
X61325383Y-109144000D01*
X61185509Y-109116177D01*
X61045634Y-109088354D01*
X60782115Y-108979201D01*
X60544954Y-108820735D01*
X60544951Y-108820733D01*
X60343267Y-108619049D01*
X60342198Y-108617449D01*
X60184799Y-108381885D01*
X60075646Y-108118366D01*
X60020000Y-107838616D01*
X60020000Y-107553384D01*
X60075646Y-107273634D01*
X60184799Y-107010115D01*
X60343265Y-106772954D01*
X60343267Y-106772951D01*
X60544951Y-106571267D01*
X60565336Y-106557646D01*
X60782115Y-106412799D01*
X61045634Y-106303646D01*
X61185509Y-106275823D01*
X61325383Y-106248000D01*
X61610617Y-106248000D01*
X61750491Y-106275823D01*
X61750491Y-106275823D01*
G37*
G36*
X50574491Y-106275823D02*
X50714366Y-106303646D01*
X50977885Y-106412799D01*
X51194664Y-106557646D01*
X51215049Y-106571267D01*
X51416733Y-106772951D01*
X51416735Y-106772954D01*
X51575201Y-107010115D01*
X51684354Y-107273634D01*
X51740000Y-107553384D01*
X51740000Y-107838616D01*
X51684354Y-108118366D01*
X51575201Y-108381885D01*
X51417802Y-108617449D01*
X51416733Y-108619049D01*
X51215049Y-108820733D01*
X51215046Y-108820735D01*
X50977885Y-108979201D01*
X50714366Y-109088354D01*
X50574491Y-109116177D01*
X50434617Y-109144000D01*
X50149383Y-109144000D01*
X50009509Y-109116177D01*
X49869634Y-109088354D01*
X49606115Y-108979201D01*
X49368954Y-108820735D01*
X49368951Y-108820733D01*
X49167267Y-108619049D01*
X49166198Y-108617449D01*
X49008799Y-108381885D01*
X48899646Y-108118366D01*
X48844000Y-107838616D01*
X48844000Y-107553384D01*
X48899646Y-107273634D01*
X49008799Y-107010115D01*
X49167265Y-106772954D01*
X49167267Y-106772951D01*
X49368951Y-106571267D01*
X49389336Y-106557646D01*
X49606115Y-106412799D01*
X49869634Y-106303646D01*
X50009509Y-106275823D01*
X50149383Y-106248000D01*
X50434617Y-106248000D01*
X50574491Y-106275823D01*
X50574491Y-106275823D01*
G37*
G36*
X42700491Y-102211823D02*
X42840366Y-102239646D01*
X43103885Y-102348799D01*
X43262757Y-102454954D01*
X43341049Y-102507267D01*
X43542733Y-102708951D01*
X43542735Y-102708954D01*
X43701201Y-102946115D01*
X43810354Y-103209634D01*
X43866000Y-103489384D01*
X43866000Y-103774616D01*
X43810354Y-104054366D01*
X43701201Y-104317885D01*
X43577689Y-104502733D01*
X43542733Y-104555049D01*
X43341049Y-104756733D01*
X43341046Y-104756735D01*
X43103885Y-104915201D01*
X42840366Y-105024354D01*
X42700491Y-105052177D01*
X42560617Y-105080000D01*
X42275383Y-105080000D01*
X42135509Y-105052177D01*
X41995634Y-105024354D01*
X41732115Y-104915201D01*
X41494954Y-104756735D01*
X41494951Y-104756733D01*
X41293267Y-104555049D01*
X41258311Y-104502733D01*
X41134799Y-104317885D01*
X41025646Y-104054366D01*
X40970000Y-103774616D01*
X40970000Y-103489384D01*
X41025646Y-103209634D01*
X41134799Y-102946115D01*
X41293265Y-102708954D01*
X41293267Y-102708951D01*
X41494951Y-102507267D01*
X41573243Y-102454954D01*
X41732115Y-102348799D01*
X41995634Y-102239646D01*
X42135509Y-102211823D01*
X42275383Y-102184000D01*
X42560617Y-102184000D01*
X42700491Y-102211823D01*
X42700491Y-102211823D01*
G37*
G36*
X31524491Y-102211823D02*
X31664366Y-102239646D01*
X31927885Y-102348799D01*
X32086757Y-102454954D01*
X32165049Y-102507267D01*
X32366733Y-102708951D01*
X32366735Y-102708954D01*
X32525201Y-102946115D01*
X32634354Y-103209634D01*
X32690000Y-103489384D01*
X32690000Y-103774616D01*
X32634354Y-104054366D01*
X32525201Y-104317885D01*
X32401689Y-104502733D01*
X32366733Y-104555049D01*
X32165049Y-104756733D01*
X32165046Y-104756735D01*
X31927885Y-104915201D01*
X31664366Y-105024354D01*
X31524491Y-105052177D01*
X31384617Y-105080000D01*
X31099383Y-105080000D01*
X30959509Y-105052177D01*
X30819634Y-105024354D01*
X30556115Y-104915201D01*
X30318954Y-104756735D01*
X30318951Y-104756733D01*
X30117267Y-104555049D01*
X30082311Y-104502733D01*
X29958799Y-104317885D01*
X29849646Y-104054366D01*
X29794000Y-103774616D01*
X29794000Y-103489384D01*
X29849646Y-103209634D01*
X29958799Y-102946115D01*
X30117265Y-102708954D01*
X30117267Y-102708951D01*
X30318951Y-102507267D01*
X30397243Y-102454954D01*
X30556115Y-102348799D01*
X30819634Y-102239646D01*
X30959509Y-102211823D01*
X31099383Y-102184000D01*
X31384617Y-102184000D01*
X31524491Y-102211823D01*
X31524491Y-102211823D01*
G37*
G36*
X61750491Y-101957823D02*
X61890366Y-101985646D01*
X62153885Y-102094799D01*
X62370664Y-102239646D01*
X62391049Y-102253267D01*
X62592733Y-102454951D01*
X62592735Y-102454954D01*
X62751201Y-102692115D01*
X62860354Y-102955634D01*
X62916000Y-103235384D01*
X62916000Y-103520616D01*
X62860354Y-103800366D01*
X62751201Y-104063885D01*
X62593802Y-104299449D01*
X62592733Y-104301049D01*
X62391049Y-104502733D01*
X62391046Y-104502735D01*
X62153885Y-104661201D01*
X61890366Y-104770354D01*
X61750491Y-104798177D01*
X61610617Y-104826000D01*
X61325383Y-104826000D01*
X61185509Y-104798177D01*
X61045634Y-104770354D01*
X60782115Y-104661201D01*
X60544954Y-104502735D01*
X60544951Y-104502733D01*
X60343267Y-104301049D01*
X60342198Y-104299449D01*
X60184799Y-104063885D01*
X60075646Y-103800366D01*
X60020000Y-103520616D01*
X60020000Y-103235384D01*
X60075646Y-102955634D01*
X60184799Y-102692115D01*
X60343265Y-102454954D01*
X60343267Y-102454951D01*
X60544951Y-102253267D01*
X60565336Y-102239646D01*
X60782115Y-102094799D01*
X61045634Y-101985646D01*
X61185509Y-101957823D01*
X61325383Y-101930000D01*
X61610617Y-101930000D01*
X61750491Y-101957823D01*
X61750491Y-101957823D01*
G37*
G36*
X50574491Y-101957823D02*
X50714366Y-101985646D01*
X50977885Y-102094799D01*
X51194664Y-102239646D01*
X51215049Y-102253267D01*
X51416733Y-102454951D01*
X51416735Y-102454954D01*
X51575201Y-102692115D01*
X51684354Y-102955634D01*
X51740000Y-103235384D01*
X51740000Y-103520616D01*
X51684354Y-103800366D01*
X51575201Y-104063885D01*
X51417802Y-104299449D01*
X51416733Y-104301049D01*
X51215049Y-104502733D01*
X51215046Y-104502735D01*
X50977885Y-104661201D01*
X50714366Y-104770354D01*
X50574491Y-104798177D01*
X50434617Y-104826000D01*
X50149383Y-104826000D01*
X50009509Y-104798177D01*
X49869634Y-104770354D01*
X49606115Y-104661201D01*
X49368954Y-104502735D01*
X49368951Y-104502733D01*
X49167267Y-104301049D01*
X49166198Y-104299449D01*
X49008799Y-104063885D01*
X48899646Y-103800366D01*
X48844000Y-103520616D01*
X48844000Y-103235384D01*
X48899646Y-102955634D01*
X49008799Y-102692115D01*
X49167265Y-102454954D01*
X49167267Y-102454951D01*
X49368951Y-102253267D01*
X49389336Y-102239646D01*
X49606115Y-102094799D01*
X49869634Y-101985646D01*
X50009509Y-101957823D01*
X50149383Y-101930000D01*
X50434617Y-101930000D01*
X50574491Y-101957823D01*
X50574491Y-101957823D01*
G37*
G36*
X40897091Y-98757423D02*
X41036966Y-98785246D01*
X41300485Y-98894399D01*
X41459357Y-99000554D01*
X41537649Y-99052867D01*
X41739333Y-99254551D01*
X41739335Y-99254554D01*
X41897801Y-99491715D01*
X42006954Y-99755234D01*
X42006954Y-99755235D01*
X42052270Y-99983049D01*
X42062600Y-100034984D01*
X42062600Y-100320216D01*
X42006954Y-100599966D01*
X41897801Y-100863485D01*
X41774289Y-101048333D01*
X41739333Y-101100649D01*
X41537649Y-101302333D01*
X41537646Y-101302335D01*
X41300485Y-101460801D01*
X41036966Y-101569954D01*
X40897091Y-101597777D01*
X40757217Y-101625600D01*
X40471983Y-101625600D01*
X40332109Y-101597777D01*
X40192234Y-101569954D01*
X39928715Y-101460801D01*
X39691554Y-101302335D01*
X39691551Y-101302333D01*
X39489867Y-101100649D01*
X39454911Y-101048333D01*
X39331399Y-100863485D01*
X39222246Y-100599966D01*
X39166600Y-100320216D01*
X39166600Y-100034984D01*
X39176931Y-99983049D01*
X39222246Y-99755235D01*
X39222246Y-99755234D01*
X39331399Y-99491715D01*
X39489865Y-99254554D01*
X39489867Y-99254551D01*
X39691551Y-99052867D01*
X39769843Y-99000554D01*
X39928715Y-98894399D01*
X40192234Y-98785246D01*
X40332109Y-98757423D01*
X40471983Y-98729600D01*
X40757217Y-98729600D01*
X40897091Y-98757423D01*
X40897091Y-98757423D01*
G37*
G36*
X33327891Y-98757423D02*
X33467766Y-98785246D01*
X33731285Y-98894399D01*
X33890157Y-99000554D01*
X33968449Y-99052867D01*
X34170133Y-99254551D01*
X34170135Y-99254554D01*
X34328601Y-99491715D01*
X34437754Y-99755234D01*
X34437754Y-99755235D01*
X34483070Y-99983049D01*
X34493400Y-100034984D01*
X34493400Y-100320216D01*
X34437754Y-100599966D01*
X34328601Y-100863485D01*
X34205089Y-101048333D01*
X34170133Y-101100649D01*
X33968449Y-101302333D01*
X33968446Y-101302335D01*
X33731285Y-101460801D01*
X33467766Y-101569954D01*
X33327891Y-101597777D01*
X33188017Y-101625600D01*
X32902783Y-101625600D01*
X32762909Y-101597777D01*
X32623034Y-101569954D01*
X32359515Y-101460801D01*
X32122354Y-101302335D01*
X32122351Y-101302333D01*
X31920667Y-101100649D01*
X31885711Y-101048333D01*
X31762199Y-100863485D01*
X31653046Y-100599966D01*
X31597400Y-100320216D01*
X31597400Y-100034984D01*
X31607731Y-99983049D01*
X31653046Y-99755235D01*
X31653046Y-99755234D01*
X31762199Y-99491715D01*
X31920665Y-99254554D01*
X31920667Y-99254551D01*
X32122351Y-99052867D01*
X32200643Y-99000554D01*
X32359515Y-98894399D01*
X32623034Y-98785246D01*
X32762909Y-98757423D01*
X32902783Y-98729600D01*
X33188017Y-98729600D01*
X33327891Y-98757423D01*
X33327891Y-98757423D01*
G37*
G36*
X52377891Y-98503423D02*
X52517766Y-98531246D01*
X52781285Y-98640399D01*
X52998064Y-98785246D01*
X53018449Y-98798867D01*
X53220133Y-99000551D01*
X53220135Y-99000554D01*
X53378601Y-99237715D01*
X53487754Y-99501234D01*
X53543400Y-99780984D01*
X53543400Y-100066216D01*
X53487754Y-100345966D01*
X53378601Y-100609485D01*
X53221202Y-100845049D01*
X53220133Y-100846649D01*
X53018449Y-101048333D01*
X53018446Y-101048335D01*
X52781285Y-101206801D01*
X52517766Y-101315954D01*
X52377891Y-101343777D01*
X52238017Y-101371600D01*
X51952783Y-101371600D01*
X51812909Y-101343777D01*
X51673034Y-101315954D01*
X51409515Y-101206801D01*
X51172354Y-101048335D01*
X51172351Y-101048333D01*
X50970667Y-100846649D01*
X50969598Y-100845049D01*
X50812199Y-100609485D01*
X50703046Y-100345966D01*
X50647400Y-100066216D01*
X50647400Y-99780984D01*
X50703046Y-99501234D01*
X50812199Y-99237715D01*
X50970665Y-99000554D01*
X50970667Y-99000551D01*
X51172351Y-98798867D01*
X51192736Y-98785246D01*
X51409515Y-98640399D01*
X51673034Y-98531246D01*
X51812909Y-98503423D01*
X51952783Y-98475600D01*
X52238017Y-98475600D01*
X52377891Y-98503423D01*
X52377891Y-98503423D01*
G37*
G36*
X59947091Y-98503423D02*
X60086966Y-98531246D01*
X60350485Y-98640399D01*
X60567264Y-98785246D01*
X60587649Y-98798867D01*
X60789333Y-99000551D01*
X60789335Y-99000554D01*
X60947801Y-99237715D01*
X61056954Y-99501234D01*
X61112600Y-99780984D01*
X61112600Y-100066216D01*
X61056954Y-100345966D01*
X60947801Y-100609485D01*
X60790402Y-100845049D01*
X60789333Y-100846649D01*
X60587649Y-101048333D01*
X60587646Y-101048335D01*
X60350485Y-101206801D01*
X60086966Y-101315954D01*
X59947091Y-101343777D01*
X59807217Y-101371600D01*
X59521983Y-101371600D01*
X59382109Y-101343777D01*
X59242234Y-101315954D01*
X58978715Y-101206801D01*
X58741554Y-101048335D01*
X58741551Y-101048333D01*
X58539867Y-100846649D01*
X58538798Y-100845049D01*
X58381399Y-100609485D01*
X58272246Y-100345966D01*
X58216600Y-100066216D01*
X58216600Y-99780984D01*
X58272246Y-99501234D01*
X58381399Y-99237715D01*
X58539865Y-99000554D01*
X58539867Y-99000551D01*
X58741551Y-98798867D01*
X58761936Y-98785246D01*
X58978715Y-98640399D01*
X59242234Y-98531246D01*
X59382109Y-98503423D01*
X59521983Y-98475600D01*
X59807217Y-98475600D01*
X59947091Y-98503423D01*
X59947091Y-98503423D01*
G37*
G36*
X37112491Y-97893823D02*
X37252366Y-97921646D01*
X37515885Y-98030799D01*
X37674757Y-98136954D01*
X37753049Y-98189267D01*
X37954733Y-98390951D01*
X37954735Y-98390954D01*
X38113201Y-98628115D01*
X38222354Y-98891634D01*
X38278000Y-99171384D01*
X38278000Y-99456616D01*
X38222354Y-99736366D01*
X38113201Y-99999885D01*
X38068880Y-100066216D01*
X37954733Y-100237049D01*
X37753049Y-100438733D01*
X37753046Y-100438735D01*
X37515885Y-100597201D01*
X37252366Y-100706354D01*
X37112491Y-100734177D01*
X36972617Y-100762000D01*
X36687383Y-100762000D01*
X36547509Y-100734177D01*
X36407634Y-100706354D01*
X36144115Y-100597201D01*
X35906954Y-100438735D01*
X35906951Y-100438733D01*
X35705267Y-100237049D01*
X35591120Y-100066216D01*
X35546799Y-99999885D01*
X35437646Y-99736366D01*
X35382000Y-99456616D01*
X35382000Y-99171384D01*
X35437646Y-98891634D01*
X35546799Y-98628115D01*
X35705265Y-98390954D01*
X35705267Y-98390951D01*
X35906951Y-98189267D01*
X35985243Y-98136954D01*
X36144115Y-98030799D01*
X36407634Y-97921646D01*
X36547509Y-97893823D01*
X36687383Y-97866000D01*
X36972617Y-97866000D01*
X37112491Y-97893823D01*
X37112491Y-97893823D01*
G37*
G36*
X56162491Y-97639823D02*
X56302366Y-97667646D01*
X56565885Y-97776799D01*
X56782664Y-97921646D01*
X56803049Y-97935267D01*
X57004733Y-98136951D01*
X57004735Y-98136954D01*
X57163201Y-98374115D01*
X57272354Y-98637634D01*
X57272354Y-98637635D01*
X57328000Y-98917383D01*
X57328000Y-99202617D01*
X57317669Y-99254554D01*
X57272354Y-99482366D01*
X57163201Y-99745885D01*
X57005802Y-99981449D01*
X57004733Y-99983049D01*
X56803049Y-100184733D01*
X56803046Y-100184735D01*
X56565885Y-100343201D01*
X56302366Y-100452354D01*
X56162491Y-100480177D01*
X56022617Y-100508000D01*
X55737383Y-100508000D01*
X55597509Y-100480177D01*
X55457634Y-100452354D01*
X55194115Y-100343201D01*
X54956954Y-100184735D01*
X54956951Y-100184733D01*
X54755267Y-99983049D01*
X54754198Y-99981449D01*
X54596799Y-99745885D01*
X54487646Y-99482366D01*
X54442331Y-99254554D01*
X54432000Y-99202617D01*
X54432000Y-98917383D01*
X54487646Y-98637635D01*
X54487646Y-98637634D01*
X54596799Y-98374115D01*
X54755265Y-98136954D01*
X54755267Y-98136951D01*
X54956951Y-97935267D01*
X54977336Y-97921646D01*
X55194115Y-97776799D01*
X55457634Y-97667646D01*
X55597509Y-97639823D01*
X55737383Y-97612000D01*
X56022617Y-97612000D01*
X56162491Y-97639823D01*
X56162491Y-97639823D01*
G37*
G36*
X31859096Y-92162033D02*
X31859098Y-92162034D01*
X31859099Y-92162034D01*
X32323352Y-92354333D01*
X32584213Y-92528635D01*
X32741171Y-92633511D01*
X33096489Y-92988829D01*
X33096491Y-92988832D01*
X33375667Y-93406648D01*
X33567966Y-93870901D01*
X33567967Y-93870904D01*
X33666000Y-94363747D01*
X33666000Y-94866253D01*
X33572996Y-95333816D01*
X33567966Y-95359099D01*
X33375667Y-95823352D01*
X33190148Y-96101000D01*
X33096489Y-96241171D01*
X32741171Y-96596489D01*
X32741168Y-96596491D01*
X32323352Y-96875667D01*
X31859099Y-97067966D01*
X31859098Y-97067966D01*
X31859096Y-97067967D01*
X31366253Y-97166000D01*
X30863747Y-97166000D01*
X30370904Y-97067967D01*
X30370902Y-97067966D01*
X30370901Y-97067966D01*
X29906648Y-96875667D01*
X29488832Y-96596491D01*
X29488829Y-96596489D01*
X29133511Y-96241171D01*
X29039852Y-96101000D01*
X28854333Y-95823352D01*
X28662034Y-95359099D01*
X28657005Y-95333816D01*
X28564000Y-94866253D01*
X28564000Y-94363747D01*
X28662033Y-93870904D01*
X28662034Y-93870901D01*
X28854333Y-93406648D01*
X29133509Y-92988832D01*
X29133511Y-92988829D01*
X29488829Y-92633511D01*
X29645787Y-92528635D01*
X29906648Y-92354333D01*
X30370901Y-92162034D01*
X30370902Y-92162034D01*
X30370904Y-92162033D01*
X30863747Y-92064000D01*
X31366253Y-92064000D01*
X31859096Y-92162033D01*
X31859096Y-92162033D01*
G37*
G36*
X61069096Y-92162033D02*
X61069098Y-92162034D01*
X61069099Y-92162034D01*
X61533352Y-92354333D01*
X61794213Y-92528635D01*
X61951171Y-92633511D01*
X62306489Y-92988829D01*
X62306491Y-92988832D01*
X62585667Y-93406648D01*
X62777966Y-93870901D01*
X62777967Y-93870904D01*
X62876000Y-94363747D01*
X62876000Y-94866253D01*
X62782996Y-95333816D01*
X62777966Y-95359099D01*
X62585667Y-95823352D01*
X62400148Y-96101000D01*
X62306489Y-96241171D01*
X61951171Y-96596489D01*
X61951168Y-96596491D01*
X61533352Y-96875667D01*
X61069099Y-97067966D01*
X61069098Y-97067966D01*
X61069096Y-97067967D01*
X60576253Y-97166000D01*
X60073747Y-97166000D01*
X59580904Y-97067967D01*
X59580902Y-97067966D01*
X59580901Y-97067966D01*
X59116648Y-96875667D01*
X58698832Y-96596491D01*
X58698829Y-96596489D01*
X58343511Y-96241171D01*
X58249852Y-96101000D01*
X58064333Y-95823352D01*
X57872034Y-95359099D01*
X57867005Y-95333816D01*
X57774000Y-94866253D01*
X57774000Y-94363747D01*
X57872033Y-93870904D01*
X57872034Y-93870901D01*
X58064333Y-93406648D01*
X58343509Y-92988832D01*
X58343511Y-92988829D01*
X58698829Y-92633511D01*
X58855787Y-92528635D01*
X59116648Y-92354333D01*
X59580901Y-92162034D01*
X59580902Y-92162034D01*
X59580904Y-92162033D01*
X60073747Y-92064000D01*
X60576253Y-92064000D01*
X61069096Y-92162033D01*
X61069096Y-92162033D01*
G37*
G36*
X35726821Y-94411313D02*
X35726824Y-94411314D01*
X35726825Y-94411314D01*
X35887239Y-94459975D01*
X35887241Y-94459976D01*
X35887244Y-94459977D01*
X36035078Y-94538995D01*
X36164659Y-94645341D01*
X36271005Y-94774922D01*
X36350023Y-94922756D01*
X36350024Y-94922759D01*
X36350025Y-94922761D01*
X36398686Y-95083175D01*
X36398687Y-95083179D01*
X36415117Y-95250000D01*
X36398687Y-95416821D01*
X36398686Y-95416824D01*
X36398686Y-95416825D01*
X36373993Y-95498228D01*
X36350023Y-95577244D01*
X36271005Y-95725078D01*
X36164659Y-95854659D01*
X36035078Y-95961005D01*
X35887244Y-96040023D01*
X35887241Y-96040024D01*
X35887239Y-96040025D01*
X35726825Y-96088686D01*
X35726824Y-96088686D01*
X35726821Y-96088687D01*
X35601804Y-96101000D01*
X35518196Y-96101000D01*
X35393179Y-96088687D01*
X35393176Y-96088686D01*
X35393175Y-96088686D01*
X35232761Y-96040025D01*
X35232759Y-96040024D01*
X35232756Y-96040023D01*
X35084922Y-95961005D01*
X34955341Y-95854659D01*
X34848995Y-95725078D01*
X34769977Y-95577244D01*
X34746008Y-95498228D01*
X34721314Y-95416825D01*
X34721314Y-95416824D01*
X34721313Y-95416821D01*
X34704883Y-95250000D01*
X34721313Y-95083179D01*
X34721314Y-95083175D01*
X34769975Y-94922761D01*
X34769976Y-94922759D01*
X34769977Y-94922756D01*
X34848995Y-94774922D01*
X34955341Y-94645341D01*
X35084922Y-94538995D01*
X35232756Y-94459977D01*
X35232759Y-94459976D01*
X35232761Y-94459975D01*
X35393175Y-94411314D01*
X35393176Y-94411314D01*
X35393179Y-94411313D01*
X35518196Y-94399000D01*
X35601804Y-94399000D01*
X35726821Y-94411313D01*
X35726821Y-94411313D01*
G37*
G36*
X43428228Y-94431703D02*
X43583100Y-94495853D01*
X43722481Y-94588985D01*
X43841015Y-94707519D01*
X43934147Y-94846900D01*
X43998297Y-95001772D01*
X44031000Y-95166184D01*
X44031000Y-95333816D01*
X43998297Y-95498228D01*
X43934147Y-95653100D01*
X43841015Y-95792481D01*
X43722481Y-95911015D01*
X43583100Y-96004147D01*
X43428228Y-96068297D01*
X43263816Y-96101000D01*
X43096184Y-96101000D01*
X42931772Y-96068297D01*
X42776900Y-96004147D01*
X42637519Y-95911015D01*
X42518985Y-95792481D01*
X42425853Y-95653100D01*
X42361703Y-95498228D01*
X42329000Y-95333816D01*
X42329000Y-95166184D01*
X42361703Y-95001772D01*
X42425853Y-94846900D01*
X42518985Y-94707519D01*
X42637519Y-94588985D01*
X42776900Y-94495853D01*
X42931772Y-94431703D01*
X43096184Y-94399000D01*
X43263816Y-94399000D01*
X43428228Y-94431703D01*
X43428228Y-94431703D01*
G37*
G36*
X56046821Y-94411313D02*
X56046824Y-94411314D01*
X56046825Y-94411314D01*
X56207239Y-94459975D01*
X56207241Y-94459976D01*
X56207244Y-94459977D01*
X56355078Y-94538995D01*
X56484659Y-94645341D01*
X56591005Y-94774922D01*
X56670023Y-94922756D01*
X56670024Y-94922759D01*
X56670025Y-94922761D01*
X56718686Y-95083175D01*
X56718687Y-95083179D01*
X56735117Y-95250000D01*
X56718687Y-95416821D01*
X56718686Y-95416824D01*
X56718686Y-95416825D01*
X56693993Y-95498228D01*
X56670023Y-95577244D01*
X56591005Y-95725078D01*
X56484659Y-95854659D01*
X56355078Y-95961005D01*
X56207244Y-96040023D01*
X56207241Y-96040024D01*
X56207239Y-96040025D01*
X56046825Y-96088686D01*
X56046824Y-96088686D01*
X56046821Y-96088687D01*
X55921804Y-96101000D01*
X55838196Y-96101000D01*
X55713179Y-96088687D01*
X55713176Y-96088686D01*
X55713175Y-96088686D01*
X55552761Y-96040025D01*
X55552759Y-96040024D01*
X55552756Y-96040023D01*
X55404922Y-95961005D01*
X55275341Y-95854659D01*
X55168995Y-95725078D01*
X55089977Y-95577244D01*
X55066008Y-95498228D01*
X55041314Y-95416825D01*
X55041314Y-95416824D01*
X55041313Y-95416821D01*
X55024883Y-95250000D01*
X55041313Y-95083179D01*
X55041314Y-95083175D01*
X55089975Y-94922761D01*
X55089976Y-94922759D01*
X55089977Y-94922756D01*
X55168995Y-94774922D01*
X55275341Y-94645341D01*
X55404922Y-94538995D01*
X55552756Y-94459977D01*
X55552759Y-94459976D01*
X55552761Y-94459975D01*
X55713175Y-94411314D01*
X55713176Y-94411314D01*
X55713179Y-94411313D01*
X55838196Y-94399000D01*
X55921804Y-94399000D01*
X56046821Y-94411313D01*
X56046821Y-94411313D01*
G37*
G36*
X48508228Y-94431703D02*
X48663100Y-94495853D01*
X48802481Y-94588985D01*
X48921015Y-94707519D01*
X49014147Y-94846900D01*
X49078297Y-95001772D01*
X49111000Y-95166184D01*
X49111000Y-95333816D01*
X49078297Y-95498228D01*
X49014147Y-95653100D01*
X48921015Y-95792481D01*
X48802481Y-95911015D01*
X48663100Y-96004147D01*
X48508228Y-96068297D01*
X48343816Y-96101000D01*
X48176184Y-96101000D01*
X48011772Y-96068297D01*
X47856900Y-96004147D01*
X47717519Y-95911015D01*
X47598985Y-95792481D01*
X47505853Y-95653100D01*
X47441703Y-95498228D01*
X47409000Y-95333816D01*
X47409000Y-95166184D01*
X47441703Y-95001772D01*
X47505853Y-94846900D01*
X47598985Y-94707519D01*
X47717519Y-94588985D01*
X47856900Y-94495853D01*
X48011772Y-94431703D01*
X48176184Y-94399000D01*
X48343816Y-94399000D01*
X48508228Y-94431703D01*
X48508228Y-94431703D01*
G37*
G36*
X46026565Y-92334389D02*
X46217834Y-92413615D01*
X46389976Y-92528637D01*
X46536363Y-92675024D01*
X46651385Y-92847166D01*
X46730611Y-93038435D01*
X46771000Y-93241484D01*
X46771000Y-93448516D01*
X46730611Y-93651565D01*
X46651385Y-93842834D01*
X46536363Y-94014976D01*
X46389976Y-94161363D01*
X46217834Y-94276385D01*
X46026565Y-94355611D01*
X45823516Y-94396000D01*
X45616484Y-94396000D01*
X45413435Y-94355611D01*
X45222166Y-94276385D01*
X45050024Y-94161363D01*
X44903637Y-94014976D01*
X44788615Y-93842834D01*
X44709389Y-93651565D01*
X44669000Y-93448516D01*
X44669000Y-93241484D01*
X44709389Y-93038435D01*
X44788615Y-92847166D01*
X44903637Y-92675024D01*
X45050024Y-92528637D01*
X45222166Y-92413615D01*
X45413435Y-92334389D01*
X45616484Y-92294000D01*
X45823516Y-92294000D01*
X46026565Y-92334389D01*
X46026565Y-92334389D01*
G37*
M02*
